<?xml version="1.0" encoding="UTF-8" standalone="no"?>
<!-- Generator: Adobe Illustrator 12.0.0, SVG Export Plug-In . SVG Version: 6.00 Build 51448)  -->

<svg
   xmlns:dc="http://purl.org/dc/elements/1.1/"
   xmlns:cc="http://creativecommons.org/ns#"
   xmlns:rdf="http://www.w3.org/1999/02/22-rdf-syntax-ns#"
   xmlns:svg="http://www.w3.org/2000/svg"
   xmlns="http://www.w3.org/2000/svg"
   xmlns:xlink="http://www.w3.org/1999/xlink"
   xmlns:sodipodi="http://sodipodi.sourceforge.net/DTD/sodipodi-0.dtd"
   xmlns:inkscape="http://www.inkscape.org/namespaces/inkscape"
   version="1.1"
   id="Livello_1"
   width="128"
   height="128"
   viewBox="0 0 128 128"
   overflow="visible"
   enable-background="new 0 0 128 128"
   xml:space="preserve"
   sodipodi:version="0.32"
   inkscape:version="0.46+devel"
   sodipodi:docname="install-usb-gui.svg"
   inkscape:output_extension="org.inkscape.output.svg.inkscape"
   inkscape:export-filename="/home/david/Desktop/preferences-desktop-default-applications.png"
   inkscape:export-xdpi="11.25"
   inkscape:export-ydpi="11.25"><metadata
   id="metadata195"><rdf:RDF><cc:Work
       rdf:about=""><dc:format>image/svg+xml</dc:format><dc:type
         rdf:resource="http://purl.org/dc/dcmitype/StillImage" /><dc:title /></cc:Work></rdf:RDF></metadata><defs
   id="defs193"><linearGradient
     id="linearGradient17651"><stop
       style="stop-color:#b7b7b7;stop-opacity:0;"
       offset="0"
       id="stop17659" /><stop
       id="stop17661"
       offset="1"
       style="stop-color:#999999;stop-opacity:0;" /></linearGradient><linearGradient
     inkscape:collect="always"
     id="linearGradient17635"><stop
       style="stop-color:#e6e6e6;stop-opacity:1"
       offset="0"
       id="stop17637" /><stop
       id="stop17647"
       offset="0.46611026"
       style="stop-color:#c9c9c9;stop-opacity:1;" /><stop
       id="stop17645"
       offset="0.49485716"
       style="stop-color:#ffffff;stop-opacity:1" /><stop
       id="stop17643"
       offset="0.64064497"
       style="stop-color:#b7b7b7;stop-opacity:1;" /><stop
       style="stop-color:#999999;stop-opacity:1"
       offset="1"
       id="stop17639" /></linearGradient><linearGradient
     id="linearGradient17627"><stop
       style="stop-color:#2c2e2a;stop-opacity:1"
       offset="0"
       id="stop17629" /><stop
       style="stop-color:#b3b3b3;stop-opacity:0;"
       offset="1"
       id="stop17631" /></linearGradient><linearGradient
     id="linearGradient13048"
     inkscape:collect="always"><stop
       id="stop13050"
       offset="0"
       style="stop-color:#ff0000;stop-opacity:1" /><stop
       style="stop-color:#ff2a2a;stop-opacity:1"
       offset="0.17252123"
       id="stop13052" /><stop
       style="stop-color:#ff0000;stop-opacity:1"
       offset="0.50209147"
       id="stop13054" /><stop
       id="stop13056"
       offset="1"
       style="stop-color:#ad1318;stop-opacity:1" /></linearGradient><linearGradient
     inkscape:collect="always"
     id="linearGradient13032"><stop
       style="stop-color:#b3b3b3;stop-opacity:1;"
       offset="0"
       id="stop13034" /><stop
       id="stop13042"
       offset="0.8663587"
       style="stop-color:#2b0000;stop-opacity:1" /><stop
       id="stop13040"
       offset="0.88601255"
       style="stop-color:#ff0000;stop-opacity:1" /><stop
       style="stop-color:#000000;stop-opacity:1"
       offset="1"
       id="stop13036" /></linearGradient><linearGradient
     inkscape:collect="always"
     id="linearGradient13004"><stop
       style="stop-color:#b3b3b3;stop-opacity:1"
       offset="0"
       id="stop13006" /><stop
       id="stop13016"
       offset="0.2906082"
       style="stop-color:#000000;stop-opacity:1" /><stop
       style="stop-color:#4d4d4d;stop-opacity:1"
       offset="0.36787975"
       id="stop13018" /><stop
       id="stop13014"
       offset="0.82814932"
       style="stop-color:#000000;stop-opacity:1" /><stop
       style="stop-color:#666666;stop-opacity:1"
       offset="1"
       id="stop13008" /></linearGradient><linearGradient
     inkscape:collect="always"
     id="linearGradient8219"><stop
       style="stop-color:#000000;stop-opacity:1;"
       offset="0"
       id="stop8221" /><stop
       style="stop-color:#000000;stop-opacity:0;"
       offset="1"
       id="stop8223" /></linearGradient><radialGradient
     gradientUnits="userSpaceOnUse"
     gradientTransform="matrix(1,0,0,-1,36.9277,123)"
     r="8.9890003"
     cy="11.4248"
     cx="-11.6638"
     id="XMLID_43_">
			<stop
   id="stop21244"
   style="stop-color:#BBBBBB"
   offset="0" />
			<stop
   id="stop21246"
   style="stop-color:#A9A9A9"
   offset="0.2271" />
			<stop
   id="stop21248"
   style="stop-color:#7A7A7A"
   offset="0.6814" />
			<stop
   id="stop21250"
   style="stop-color:#555555"
   offset="1" />
		</radialGradient><linearGradient
     gradientTransform="matrix(1,0,0,-1,36.9277,123)"
     y2="106.2409"
     x2="-10.7522"
     y1="105.1201"
     x1="-19.7185"
     gradientUnits="userSpaceOnUse"
     id="XMLID_44_">
			<stop
   id="stop21255"
   style="stop-color:#888888"
   offset="0" />
			<stop
   id="stop21257"
   style="stop-color:#888A85"
   offset="1" />
		</linearGradient><linearGradient
     gradientTransform="matrix(1,0,0,-1,36.9277,123)"
     y2="106.5508"
     x2="3.6184001"
     y1="106.5508"
     x1="-20.159401"
     gradientUnits="userSpaceOnUse"
     id="XMLID_45_">
			<stop
   id="stop21262"
   style="stop-color:#DDDDDD"
   offset="0" />
			<stop
   id="stop21264"
   style="stop-color:#EEEEEE"
   offset="0.2722" />
			<stop
   id="stop21266"
   style="stop-color:#EAEAEB"
   offset="0.4705" />
			<stop
   id="stop21268"
   style="stop-color:#DDDEE1"
   offset="0.6767" />
			<stop
   id="stop21270"
   style="stop-color:#C9CBD2"
   offset="0.8858" />
			<stop
   id="stop21272"
   style="stop-color:#BABDC7"
   offset="1" />
		</linearGradient><linearGradient
     gradientTransform="matrix(1,0,0,-1,36.9277,123)"
     y2="107.6729"
     x2="-17.7971"
     y1="107.6729"
     x1="-12.1931"
     gradientUnits="userSpaceOnUse"
     id="XMLID_46_">
			<stop
   id="stop21277"
   style="stop-color:#555753"
   offset="0" />
			<stop
   id="stop21279"
   style="stop-color:#2E3436"
   offset="1" />
		</linearGradient><linearGradient
     gradientTransform="matrix(1,0,0,-1,36.9277,123)"
     y2="107.6729"
     x2="-4.9085002"
     y1="107.6729"
     x1="0.69599998"
     gradientUnits="userSpaceOnUse"
     id="XMLID_47_">
			<stop
   id="stop21286"
   style="stop-color:#555753"
   offset="0" />
			<stop
   id="stop21288"
   style="stop-color:#2E3436"
   offset="1" />
		</linearGradient><linearGradient
     gradientTransform="matrix(1,0,0,-1,36.9277,123)"
     y2="108.8578"
     x2="-15.2374"
     y1="106.4863"
     x1="-15.8728"
     gradientUnits="userSpaceOnUse"
     id="XMLID_48_">
			<stop
   id="stop21295"
   style="stop-color:#E3AD00"
   offset="0" />
			<stop
   id="stop21297"
   style="stop-color:#FF7E00"
   offset="1" />
		</linearGradient><linearGradient
     gradientTransform="matrix(1,0,0,-1,36.9277,123)"
     y2="108.8577"
     x2="-1.2273999"
     y1="106.4854"
     x1="-1.8631001"
     gradientUnits="userSpaceOnUse"
     id="XMLID_49_">
			<stop
   id="stop21302"
   style="stop-color:#E3AD00"
   offset="0" />
			<stop
   id="stop21304"
   style="stop-color:#FF7E00"
   offset="1" />
		</linearGradient><linearGradient
     inkscape:collect="always"
     xlink:href="#XMLID_49_"
     id="linearGradient12975"
     gradientUnits="userSpaceOnUse"
     gradientTransform="matrix(1.2238617,0,0,-1.2238617,10.238523,-12.756516)"
     x1="-1.8631001"
     y1="106.4854"
     x2="-1.2273999"
     y2="108.8577" /><linearGradient
     inkscape:collect="always"
     xlink:href="#XMLID_48_"
     id="linearGradient12978"
     gradientUnits="userSpaceOnUse"
     gradientTransform="matrix(1.2238617,0,0,-1.2238617,10.238523,-12.756516)"
     x1="-15.8728"
     y1="106.4863"
     x2="-15.2374"
     y2="108.8578" /><linearGradient
     inkscape:collect="always"
     xlink:href="#XMLID_47_"
     id="linearGradient12982"
     gradientUnits="userSpaceOnUse"
     gradientTransform="matrix(1.2238617,0,0,-1.2238617,10.238523,-12.756516)"
     x1="0.69599998"
     y1="107.6729"
     x2="-4.9085002"
     y2="107.6729" /><linearGradient
     inkscape:collect="always"
     xlink:href="#XMLID_46_"
     id="linearGradient12986"
     gradientUnits="userSpaceOnUse"
     gradientTransform="matrix(1.2238617,0,0,-1.2238617,10.238523,-12.756516)"
     x1="-12.1931"
     y1="107.6729"
     x2="-17.7971"
     y2="107.6729" /><linearGradient
     inkscape:collect="always"
     xlink:href="#XMLID_45_"
     id="linearGradient12989"
     gradientUnits="userSpaceOnUse"
     gradientTransform="matrix(0.8654009,-0.8654009,0.8654009,0.8654009,16.259946,1.7804895)"
     x1="-20.159401"
     y1="106.5508"
     x2="3.6184001"
     y2="106.5508" /><linearGradient
     inkscape:collect="always"
     xlink:href="#XMLID_44_"
     id="linearGradient12992"
     gradientUnits="userSpaceOnUse"
     gradientTransform="matrix(1.2238617,0,0,-1.2238617,10.238523,-12.756516)"
     x1="-19.7185"
     y1="105.1201"
     x2="-10.7522"
     y2="106.2409" /><radialGradient
     inkscape:collect="always"
     xlink:href="#XMLID_43_"
     id="radialGradient12995"
     gradientUnits="userSpaceOnUse"
     gradientTransform="matrix(0.8654009,-0.8654009,0.8654009,0.8654009,16.903906,1.1365347)"
     cx="-11.6638"
     cy="11.4248"
     r="8.9890003" /><linearGradient
     inkscape:collect="always"
     xlink:href="#linearGradient13004"
     id="linearGradient13012"
     x1="87.272728"
     y1="35.920948"
     x2="11.97745"
     y2="111.21622"
     gradientUnits="userSpaceOnUse"
     gradientTransform="matrix(0,1,-1,0,128.10474,-0.48275476)" /><radialGradient
     inkscape:collect="always"
     xlink:href="#linearGradient13032"
     id="radialGradient17615"
     gradientUnits="userSpaceOnUse"
     gradientTransform="matrix(0.72715861,-0.65319963,0.65341215,0.72739484,-18.634289,46.565425)"
     cx="37.455967"
     cy="77.426682"
     fx="37.455967"
     fy="77.426682"
     r="23.013834" /><radialGradient
     inkscape:collect="always"
     xlink:href="#linearGradient13048"
     id="radialGradient17617"
     gradientUnits="userSpaceOnUse"
     gradientTransform="matrix(0.72715861,-0.65319963,0.65341215,0.72739484,-18.634289,46.565425)"
     cx="37.455967"
     cy="77.426682"
     fx="37.455967"
     fy="77.426682"
     r="23.013834" /><linearGradient
     inkscape:collect="always"
     xlink:href="#linearGradient17627"
     id="linearGradient17633"
     x1="31.36759"
     y1="12.648222"
     x2="31.36759"
     y2="63.370403"
     gradientUnits="userSpaceOnUse" /><linearGradient
     inkscape:collect="always"
     xlink:href="#linearGradient17635"
     id="linearGradient17641"
     x1="50.339924"
     y1="92.079048"
     x2="37.817013"
     y2="18.338749"
     gradientUnits="userSpaceOnUse" /><linearGradient
     inkscape:collect="always"
     xlink:href="#linearGradient17651"
     id="linearGradient17663"
     gradientUnits="userSpaceOnUse"
     x1="50.339924"
     y1="92.079048"
     x2="37.817013"
     y2="18.338749" /><linearGradient
     inkscape:collect="always"
     xlink:href="#linearGradient17627"
     id="linearGradient17665"
     gradientUnits="userSpaceOnUse"
     x1="68.047432"
     y1="108.7747"
     x2="69.312248"
     y2="81.960472" /></defs><sodipodi:namedview
   inkscape:window-height="842"
   inkscape:window-width="1440"
   inkscape:pageshadow="2"
   inkscape:pageopacity="0.0"
   guidetolerance="10.0"
   gridtolerance="10.0"
   objecttolerance="10.0"
   borderopacity="1.0"
   bordercolor="#666666"
   pagecolor="#ffffff"
   id="base"
   inkscape:zoom="2.390625"
   inkscape:cx="64"
   inkscape:cy="64"
   inkscape:window-x="-5"
   inkscape:window-y="-3"
   inkscape:current-layer="Livello_1"
   showgrid="true"
   inkscape:snap-global="false"
   showguides="true"
   inkscape:guide-bbox="true"><inkscape:grid
     type="xygrid"
     id="grid77828"
     empspacing="4"
     visible="true"
     enabled="true"
     snapvisiblegridlinesonly="true" /></sodipodi:namedview>
<linearGradient
   id="XMLID_13_"
   gradientUnits="userSpaceOnUse"
   x1="128"
   y1="90.376999"
   x2="82"
   y2="90.3769"
   xlink:href="#linearGradient8219"
   spreadMethod="pad"
   gradientTransform="translate(-20,0)">
	<stop
   offset="0"
   style="stop-color:#000000;stop-opacity:0;"
   id="stop4" />
	<stop
   offset="1"
   style="stop-color:#000000"
   id="stop6" />
</linearGradient>


<linearGradient
   id="XMLID_14_"
   gradientUnits="userSpaceOnUse"
   x1="34.6528"
   y1="-0.2993"
   x2="90"
   y2="89.299507">
	<stop
   offset="0.1302"
   style="stop-color:#FFFFFF"
   id="stop13" />
	<stop
   offset="1"
   style="stop-color:#D3D7CF"
   id="stop15" />
</linearGradient>

<linearGradient
   id="XMLID_15_"
   gradientUnits="userSpaceOnUse"
   x1="79.1064"
   y1="58.8335"
   x2="95.944519"
   y2="58.8335">
	<stop
   offset="0.2604"
   style="stop-color:#FFFFFF"
   id="stop20" />
	<stop
   offset="0.4142"
   style="stop-color:#EEEEEC"
   id="stop22" />
	<stop
   offset="1"
   style="stop-color:#BABDB6"
   id="stop24" />
</linearGradient>

<linearGradient
   id="XMLID_16_"
   gradientUnits="userSpaceOnUse"
   x1="54.1396"
   y1="-25.6714"
   x2="104.1396"
   y2="44.3286">
	<stop
   offset="0.1302"
   style="stop-color:#888A85"
   id="stop29" />
	<stop
   offset="1"
   style="stop-color:#2E3436"
   id="stop31" />
</linearGradient>

<linearGradient
   id="XMLID_17_"
   gradientUnits="userSpaceOnUse"
   x1="11.8818"
   y1="10.4443"
   x2="72.3184"
   y2="113.4838">
	<stop
   offset="0.1302"
   style="stop-color:#b01013;stop-opacity:0.64233577;"
   id="stop36" />
	<stop
   offset="1"
   style="stop-color:#ad1318;stop-opacity:1"
   id="stop38" />
</linearGradient>

<linearGradient
   id="XMLID_18_"
   gradientUnits="userSpaceOnUse"
   x1="86.7266"
   y1="91.6836"
   x2="96.9307"
   y2="91.6836">
	<stop
   offset="0"
   style="stop-color:#ee6165;stop-opacity:1;"
   id="stop43" />
	<stop
   offset="0.2959"
   style="stop-color:#ad1318;stop-opacity:1"
   id="stop45" />
	<stop
   offset="1"
   style="stop-color:#520b0e;stop-opacity:1;"
   id="stop47" />
</linearGradient>







<g
   id="Foreground_Grid_1_"
   transform="matrix(0.3602374,0,0,0.3602374,-1428.4895,-72.91657)" /><g
   id="Foreground_Grid_1_-6"
   transform="matrix(0.3602374,0,0,0.3602374,-988.61229,-9.57412)" />
<g
   id="g11112"><path
     style="opacity:0.25;fill:#323232"
     enable-background="new    "
     d="m 100.71564,66.286251 5.22356,5.22356 c 0.53568,0.535683 0.53654,1.403685 0,1.940234 l -4.36422,4.364213 22.30831,22.308312 -22.30831,22.3083 -22.308303,-22.3083 -6.304445,6.30444 c -0.536549,0.53655 -1.404547,0.53569 -1.940229,0 l -5.22356,-5.22356 c -3.08602,0.5504 -5.75059,0.0684 -7.461487,-1.642535 l -21.453288,-21.453286 -6.320023,-6.320022 -7.571389,-7.571393 0.004,-0.0043 c -4.84624,-4.915476 -8.34939,-10.53539 -10.44452,-16.254823 L 9.9165863,45.321945 c -6.95263,-6.952629 -6.95263,-18.265154 -8.6e-4,-25.21692 L 19.615996,10.40475 c 6.95263,-6.9526286 18.265158,-6.9526286 25.217788,0 l 2.635145,2.635146 c 5.719431,2.095136 11.33848,5.599144 16.254824,10.444522 l 0.0045,-0.0045 7.571392,7.571392 6.320023,6.320023 21.453288,21.453288 c 1.710894,1.710897 2.193794,4.374596 1.642534,7.461481 z"
     id="path21233" /><path
     style="opacity:0.05;fill:#323232"
     enable-background="new    "
     d="m 105.03685,125.89068 c -1.90821,1.9082 -5.01413,1.90907 -6.923208,0 0,0 -17.264748,-17.26475 -18.846701,-18.84671 -1.016846,1.01685 -2.842842,2.84285 -2.842842,2.84285 -2.443893,2.44389 -6.419544,2.44389 -8.863436,0 0,0 -3.17256,-3.17256 -3.744589,-3.74459 -3.688339,0.0813 -6.784744,-0.96579 -8.940457,-3.1215 L 19.53178,67.676892 C 14.72188,62.789105 10.91065,56.954573 8.4606998,50.78686 c -0.26567,-0.265675 -2.00253,-2.002535 -2.00253,-2.002535 -8.86084,-8.860838 -8.86084,-23.280147 -8.6e-4,-32.140121 L 16.15758,6.9439268 c 8.86084,-8.8608384 23.280156,-8.8608473 32.140994,-9e-6 0,0 1.738587,1.7385868 2.002535,2.0025352 6.173775,2.452551 12.003105,6.262051 16.862339,11.052037 0.0069,0.0069 7.596636,7.587689 7.596636,7.587689 l 27.775046,27.775042 c 2.15571,2.155713 3.20198,5.252983 3.12237,8.941317 0.57203,0.572029 3.74372,3.743724 3.74372,3.743724 2.44389,2.443892 2.44389,6.419544 -10e-6,8.863443 0,0 -0.45087,0.450874 -0.9026,0.902607 1.58195,1.581953 18.8467,18.846701 18.8467,18.846701 1.90907,1.909074 1.90907,5.014127 0,6.923207 l -22.30846,22.30846 z"
     id="path21235" /><path
     style="opacity:0.1;fill:#323232"
     enable-background="new    "
     d="m 104.17118,125.02707 c -1.43137,1.43138 -3.76103,1.43138 -5.192402,0 0,0 -18.124091,-18.12409 -19.712101,-19.7121 -1.138002,1.138 -3.708243,3.70825 -3.708243,3.70825 -1.96619,1.96619 -5.166443,1.96619 -7.132633,0 0,0 -3.478912,-3.47892 -4.084693,-4.0847 -3.568049,0.19991 -6.546758,-0.7278 -8.600355,-2.78139 L 20.396916,66.813282 c -4.78134,-4.859228 -8.53978,-10.640974 -10.9170297,-16.735986 -0.27174,-0.271741 -2.15831,-2.158308 -2.15831,-2.158308 -8.38401,-8.38401 -8.384,-22.026184 -8.6e-4,-30.409322 L 17.020986,7.8093886 c 8.38401,-8.38400973 22.026182,-8.38400973 30.410191,0 0,0 1.886567,1.8865666 2.158308,2.1583076 6.098479,2.3789898 11.875896,6.1348238 16.713486,10.9031838 0.0061,0.0061 7.592308,7.583361 7.592308,7.583361 l 27.774181,27.774177 c 2.05359,2.053596 2.97957,5.034042 2.78226,8.601223 0.60664,0.606646 4.08469,4.084692 4.08469,4.084692 1.96619,1.966191 1.96619,5.166443 0,7.132636 0,0 -0.98828,0.988282 -1.76802,1.768013 1.58801,1.588011 19.71211,19.712103 19.71211,19.712103 1.43137,1.431372 1.43137,3.761035 0,5.192405 l -22.30917,22.30744 0,0 z"
     id="path21237" /><path
     style="opacity:0.15;fill:#323232"
     enable-background="new    "
     d="m 103.30578,124.16167 c -0.95453,0.95454 -2.50706,0.95454 -3.4616,0 0,0 -18.984299,-18.9843 -20.577502,-20.5775 -1.223677,1.22368 -4.573644,4.57365 -4.573644,4.57365 -1.489355,1.48935 -3.912478,1.48935 -5.401833,0 0,0 -3.799975,-3.79998 -4.442968,-4.44297 -3.444296,0.3202 -6.300118,-0.48117 -8.242078,-2.42313 L 21.262316,65.947881 C 16.509536,61.11721 12.805616,55.389989 10.501916,49.368527 10.224126,49.090738 8.1869763,47.053587 8.1869763,47.053587 0.27980631,39.146415 0.27980631,26.281365 8.1861063,18.375063 L 17.886386,8.6747856 c 7.90803,-7.90803106 20.773949,-7.90544536 28.679394,0 0,0 2.037151,2.0371504 2.31494,2.3149394 6.024922,2.305434 11.750418,6.009347 16.562911,10.752609 0.0052,0.0052 7.587117,7.57817 7.587117,7.57817 l 27.773312,27.773311 c 1.94196,1.94196 2.74332,4.799511 2.42399,8.242938 0.643,0.642993 4.44297,4.442968 4.44297,4.442968 1.48936,1.489355 1.48935,3.912483 -1e-5,5.401839 0,0 -1.65291,1.652912 -2.63341,2.63341 1.59407,1.594068 20.57751,20.577503 20.57751,20.577503 0.95453,0.954536 0.9554,2.506207 0,3.461607 l -22.30917,22.30744 0,0 z"
     id="path21239" /><path
     style="opacity:0.2;fill:#323232"
     enable-background="new    "
     d="m 102.44038,123.29627 c -0.4777,0.4777 -1.2531,0.4777 -1.7308,0 0,0 -19.844507,-19.84451 -21.442903,-21.4429 -1.288582,1.28858 -5.439045,5.43904 -5.439045,5.43904 -1.011654,1.01166 -2.658511,1.01252 -3.67103,0 0,0 -4.137482,-4.13748 -4.822014,-4.82201 -3.317947,0.44482 -6.043959,-0.225 -7.863033,-2.04408 L 22.127716,65.08248 c -4.72163,-4.797783 -8.37189,-10.46962 -10.60116,-16.420119 -0.28385,-0.283846 -2.4724497,-2.472448 -2.4724497,-2.472448 -7.43033,-7.430334 -7.43033,-19.518251 -8.6e-4,-26.947718 L 18.753516,9.5419182 c 7.43034,-7.4303345 19.51825,-7.4303345 26.948585,0 0,0 2.188602,2.1886018 2.472448,2.4724478 5.950505,2.230999 11.619741,5.87867 16.409734,10.599432 l 7.581924,7.572977 27.772446,27.772446 c 1.819937,1.819938 2.488897,4.545084 2.044937,7.863901 0.68453,0.684532 4.82202,4.822014 4.82202,4.822014 1.01165,1.011654 1.01251,2.658514 0,3.671032 0,0 -2.38678,2.386774 -3.49882,3.498816 1.59926,1.599261 21.4429,21.442904 21.4429,21.442904 0.4777,0.477697 0.47857,1.252242 1e-5,1.730802 l -22.30917,22.30744 0,0 z"
     id="path21241" /><path
     style="fill:url(#radialGradient12995)"
     d="m 25.816056,26.303863 c -2.67842,2.678419 -7.88986,1.809552 -11.63964,-1.940222 -3.74978,-3.749782 -4.6169097,-8.959496 -1.93849,-11.637915 2.67928,-2.67928 7.88985,-1.809553 11.63963,1.94023 3.74978,3.749782 4.617784,8.958627 1.9385,11.637907 z M 13.208036,13.695836 c -2.10293,2.102928 -1.21417,6.545026 1.94022,9.699417 3.15525,3.15525 7.59823,4.043156 9.70029,1.941094 2.10206,-2.102059 1.21328,-6.544163 -1.94197,-9.699413 -3.15352,-3.155259 -7.59562,-4.044016 -9.69854,-1.941098 z"
     id="path21252" /><rect
     transform="matrix(0.70710678,-0.70710678,-0.70710678,-0.70710678,0,0)"
     style="fill:url(#linearGradient12992)"
     x="-15.65802"
     y="-159.61992"
     width="31.548706"
     height="32.919434"
     id="rect21259" /><path
     style="fill:url(#linearGradient12989)"
     d="m 101.79643,122.20942 c -1.54214,-1.54214 -20.004608,-20.0046 -21.546752,-21.54675 1.534355,-1.534359 19.043146,-19.04315 20.577502,-20.577508 1.54215,1.542144 20.00461,20.004608 21.54675,21.546758 -1.53522,1.53522 -19.04314,19.04315 -20.5775,20.5775 z"
     id="path21274" /><rect
     transform="matrix(0.70710678,-0.70710678,-0.70710678,-0.70710678,0,0)"
     style="fill:url(#linearGradient12986)"
     x="-11.542183"
     y="-147.27483"
     width="6.858521"
     height="5.4865713"
     id="rect21281" /><path
     style="fill:#2e3436"
     d="m 95.976608,110.36122 c -0.726936,-0.72694 -1.212426,-1.21243 -1.939363,-1.93936 0.931171,-0.93117 1.978306,-1.97831 2.909477,-2.90948 0.726938,0.72694 1.212428,1.21243 1.939364,1.93936 -0.931171,0.93117 -1.978307,1.97831 -2.909478,2.90948 z"
     id="path21283" /><rect
     transform="matrix(0.70710678,-0.70710678,-0.70710678,-0.70710678,0,0)"
     style="fill:url(#linearGradient12982)"
     x="4.2321625"
     y="-147.27483"
     width="6.858521"
     height="5.4865713"
     id="rect21290" /><path
     style="fill:#2e3436"
     d="m 107.13076,99.207066 c -0.72694,-0.726936 -1.21243,-1.212426 -1.93937,-1.939363 0.93118,-0.931174 1.97918,-1.979176 2.90949,-2.909482 0.72693,0.726938 1.21242,1.212428 1.93936,1.939364 -0.93031,0.930306 -1.97831,1.978307 -2.90948,2.909481 z"
     id="path21292" /><rect
     transform="matrix(0.70710678,-0.70710678,-0.70710678,-0.70710678,0,0)"
     style="fill:url(#linearGradient12978)"
     x="-9.4848633"
     y="-145.90288"
     width="1.370725"
     height="2.7426739"
     id="rect21299" /><rect
     transform="matrix(0.70710678,-0.70710678,-0.70710678,-0.70710678,0,0)"
     style="fill:url(#linearGradient12975)"
     x="7.6614304"
     y="-145.90288"
     width="1.3719491"
     height="2.7426739"
     id="rect21306" /><rect
     transform="matrix(0.70710678,-0.70710678,-0.70710678,-0.70710678,0,0)"
     style="fill:#dddddd"
     x="-14.286072"
     y="-158.39606"
     width="1.3719491"
     height="31.696795"
     id="rect21308" /><rect
     transform="matrix(0.70710678,-0.70710678,-0.70710678,-0.70710678,0,0)"
     style="fill:#eeeeee"
     x="13.489464"
     y="-158.24797"
     width="1.3719491"
     height="31.548706"
     id="rect21310" /><path
     style="fill:#323232"
     d="m 55.06608,14.160903 1.945944,3.96776 -1.404991,0 -1e-6,18.480311 c 1.811308,-1.812538 4.328794,-4.330022 4.389988,-4.389991 0,-0.08567 0,-1.565318 0,-2.605602 -0.866494,-0.211728 -1.513916,-0.992551 -1.513916,-1.925135 0,-1.096579 0.892195,-1.98388 1.986305,-1.983901 1.094132,0 1.982656,0.888524 1.982656,1.98388 0,0.917897 -0.625393,1.688928 -1.472306,1.91412 l 0,2.947058 c 0,0.08444 -0.03549,0.17012 -0.101574,0.23376 l -5.271195,5.273599 0,3.040071 c 1.39153,0.269251 2.441605,1.494335 2.441605,2.962969 0,1.668124 -1.351145,3.02294 -3.020512,3.022917 -1.669358,0 -3.022943,-1.352367 -3.022942,-3.022939 0,-1.468634 1.051298,-2.694944 2.441601,-2.962969 l 0,-7.21956 -4.875886,-4.87829 c -0.06605,-0.06365 -0.104006,-0.150534 -0.104005,-0.233759 l 0,-3.888208 -1.513919,1e-6 0,-3.967761 3.966541,0 -1e-6,3.96776 -1.467408,0 c 10e-7,0.450381 10e-7,3.43538 0,3.557766 0.05757,0.0563 2.234769,2.233548 3.997136,3.995909 l 0,-14.302049 -1.40255,0 2.019368,-3.967758 z"
     id="path21383" /><path
     sodipodi:nodetypes="cccccccccccccccccccc"
     id="path13002"
     d="m 79.266677,101.85337 c -1.288582,1.28858 -5.439045,5.43904 -5.439045,5.43904 -1.011654,1.01166 -2.658511,1.01252 -3.67103,0 0,0 -4.137482,-4.13748 -4.822014,-4.82201 -3.317947,0.44482 -6.043959,-0.225 -7.863033,-2.04408 L 22.127716,65.08248 c -4.72163,-4.797783 -8.37189,-10.46962 -10.60116,-16.420119 -0.28385,-0.283846 -2.4724497,-2.472448 -2.4724497,-2.472448 -7.43033,-7.430334 -7.43033,-19.518251 -8.6e-4,-26.947718 L 18.753516,9.5419182 c 7.43034,-7.4303345 19.51825,-7.4303345 26.948585,0 0,0 2.188602,2.1886018 2.472448,2.4724478 5.950505,2.230999 11.619741,5.87867 16.409734,10.599432 l 7.581924,7.572977 27.772446,27.772446 c 1.819937,1.819938 2.488897,4.545084 2.044937,7.863901 0.68453,0.684532 4.82202,4.822014 4.82202,4.822014 1.01165,1.011654 1.01251,2.658514 0,3.671032 0,0 -2.38678,2.386774 -3.49882,3.498816 L 79.266677,101.85337 z"
     enable-background="new    "
     style="fill:#323232;fill-opacity:1;stroke:url(#linearGradient13012);stroke-opacity:1" /><path
     id="path17625"
     d="m 32.025615,8.372909 c -3.697469,0.1061896 -7.447314,1.5104055 -9.955385,4.308704 -3.93369,3.75692 -8.083533,7.395747 -11.48335,11.65177 -2.5519879,3.446875 -3.1876309,8.049685 -2.2766802,12.166008 0.9711079,3.803105 4.0010192,6.42131 6.3952572,9.320158 1.735176,2.586086 2.580244,5.668131 4.385776,8.231986 3.061507,5.366251 7.880953,9.308069 11.748611,14.052599 5.774237,4.870797 10.900566,10.541493 16.333817,15.807226 4.801654,4.683062 9.42444,9.657934 14.464602,14.010956 2.603922,0.556851 5.843342,-0.309687 7.647208,2.179034 1.010325,0.57539 1.994559,2.87661 3.030307,2.31301 10.02026,-9.772689 19.941474,-19.710161 29.725652,-29.748961 0.32705,-0.919371 -1.67091,-1.797391 -2.161953,-2.701981 C 98.077232,68.610599 97.319032,66.43742 97.630358,64.238522 97.862116,62.75809 97.211722,61.42644 96.128382,60.444055 87.135076,50.830142 77.352461,41.988456 68.412967,32.333383 66.946251,30.710336 65.058097,29.445979 63.567109,27.799816 58.926467,23.088988 53.628337,18.92056 47.44854,16.444055 43.700776,14.62586 41.473184,10.642064 37.409014,9.3215256 35.726856,8.4111873 33.882561,8.4321345 32.025615,8.372909 z"
     style="opacity:0.73239441000000005;fill:url(#linearGradient17633);fill-opacity:1;stroke:url(#linearGradient17641)" /><path
     style="opacity:0.73239441000000005;fill:url(#linearGradient17665);fill-opacity:1;stroke:url(#linearGradient17663)"
     d="m 32.025615,8.372909 c -3.697469,0.1061896 -7.447314,1.5104055 -9.955385,4.308704 -3.93369,3.75692 -8.083533,7.395747 -11.48335,11.65177 -2.5519879,3.446875 -3.1876309,8.049685 -2.2766802,12.166008 0.9711079,3.803105 4.0010192,6.42131 6.3952572,9.320158 1.735176,2.586086 2.580244,5.668131 4.385776,8.231986 3.061507,5.366251 7.880953,9.308069 11.748611,14.052599 5.774237,4.870797 10.900566,10.541493 16.333817,15.807226 4.801654,4.683062 9.42444,9.657934 14.464602,14.010956 2.603922,0.556851 5.843342,-0.309687 7.647208,2.179034 1.010325,0.57539 1.994559,2.87661 3.030307,2.31301 10.02026,-9.772689 19.941474,-19.710161 29.725652,-29.748961 0.32705,-0.919371 -1.67091,-1.797391 -2.161953,-2.701981 C 98.077232,68.610599 97.319032,66.43742 97.630358,64.238522 97.862116,62.75809 97.211722,61.42644 96.128382,60.444055 87.135076,50.830142 77.352461,41.988456 68.412967,32.333383 66.946251,30.710336 65.058097,29.445979 63.567109,27.799816 58.926467,23.088988 53.628337,18.92056 47.44854,16.444055 43.700776,14.62586 41.473184,10.642064 37.409014,9.3215256 35.726856,8.4111873 33.882561,8.4321345 32.025615,8.372909 z"
     id="path17649" /><g
     style="stroke-width:2.37894738000000006;stroke-miterlimit:4;stroke-dasharray:none;opacity:1"
     transform="matrix(0.84070796,0,0,0.84070796,1.2314009,2.6896213)"
     id="g17609"><path
       sodipodi:type="arc"
       style="fill:url(#radialGradient17615);fill-opacity:1;stroke:none;stroke-width:1.87368424000000000;stroke-miterlimit:4;stroke-dasharray:none"
       id="path13020"
       sodipodi:cx="59.193676"
       sodipodi:cy="78.418976"
       sodipodi:rx="22.513834"
       sodipodi:ry="22.513834"
       d="m 81.70751,78.418976 c 0,12.434047 -10.079787,22.513834 -22.513834,22.513834 -12.434047,0 -22.513834,-10.079787 -22.513834,-22.513834 0,-12.434047 10.079787,-22.513834 22.513834,-22.513834 12.434047,0 22.513834,10.079787 22.513834,22.513834 z"
       transform="matrix(0.89778725,-0.89778725,0.89778725,0.89778725,-68.174794,37.737919)" /><path
       transform="matrix(0.794502,-0.794502,0.794502,0.794502,-53.961434,39.72361)"
       d="m 81.70751,78.418976 c 0,12.434047 -10.079787,22.513834 -22.513834,22.513834 -12.434047,0 -22.513834,-10.079787 -22.513834,-22.513834 0,-12.434047 10.079787,-22.513834 22.513834,-22.513834 12.434047,0 22.513834,10.079787 22.513834,22.513834 z"
       sodipodi:ry="22.513834"
       sodipodi:rx="22.513834"
       sodipodi:cy="78.418976"
       sodipodi:cx="59.193676"
       id="path13044"
       style="fill:url(#radialGradient17617);fill-opacity:1;stroke:none;stroke-width:2.11726317000000019;stroke-miterlimit:4;stroke-dasharray:none"
       sodipodi:type="arc" /></g><path
     id="path17696"
     d="m 86.071693,53.432142 -1.270261,1.270261 0.747212,4.931602 -4.89424,-0.784573 -1.270261,1.270261 6.426026,1.008736 0.934015,6.351305 1.307622,-1.270261 -0.784573,-4.85688 4.89424,0.747212 1.270261,-1.270261 -6.351304,-0.971376 -1.008737,-6.426026 z m -7.920451,7.88309 -1.008736,1.008737 3.698701,3.698701 c 0.786438,0.78645 1.282293,1.602266 1.457064,2.465801 0.195317,0.997184 -0.07148,1.902152 -0.821934,2.652603 -0.688777,0.688775 -1.526544,0.93878 -2.503161,0.784573 -0.873822,-0.133643 -1.671464,-0.550643 -2.39108,-1.270261 l -3.885504,-3.885504 -0.971376,1.008737 3.848144,3.885504 c 1.064004,1.064006 2.175094,1.654531 3.362455,1.79331 1.305586,0.154205 2.473595,-0.306678 3.511898,-1.344983 0.935496,-0.935494 1.303103,-2.096977 1.046097,-3.474537 l 1.046098,1.083458 1.008736,-1.008737 -7.397402,-7.397402 z m -10.759857,4.670077 -1.008737,1.008737 4.408553,4.408553 c -1.639697,-0.375219 -3.016202,-0.01004 -4.147028,1.120818 -1.028016,1.028032 -1.558865,2.322923 -1.569146,3.885504 -0.01028,1.55232 0.503768,2.857487 1.531785,3.885504 1.022886,1.022886 2.300972,1.526645 3.848143,1.531786 1.547169,-0.0051 2.825259,-0.508902 3.848144,-1.531786 1.130817,-1.130818 1.507697,-2.556352 1.158179,-4.221749 l 1.344982,1.344982 1.046097,-1.008737 -10.460972,-10.423612 z m 2.988849,6.538108 c 1.043435,0.07711 1.966592,0.509542 2.727325,1.270261 0.760738,0.760751 1.171211,1.66847 1.232901,2.727325 0.06682,1.094848 -0.295647,2.014235 -1.046098,2.764686 -0.750458,0.750458 -1.688026,1.120821 -2.839407,1.120818 -1.151384,3e-6 -2.088943,-0.370353 -2.839406,-1.120818 -0.750449,-0.750447 -1.131101,-1.715104 -1.120819,-2.876768 0.0051,-1.166801 0.365228,-2.12116 1.120819,-2.876767 0.745318,-0.745302 1.669839,-1.085837 2.764685,-1.008737 z m -11.54443,2.278998 c -0.231293,0.0051 -0.395912,0.09705 -0.560409,0.261524 -0.159331,0.159362 -0.256384,0.356202 -0.261525,0.59777 -0.01028,0.23646 0.06482,0.438435 0.224164,0.59777 0.159351,0.159356 0.356188,0.229304 0.59777,0.224164 0.236429,-0.01028 0.438433,-0.102171 0.59777,-0.261525 0.164493,-0.164473 0.256383,-0.3291 0.261524,-0.560409 0.0051,-0.231298 -0.09703,-0.433274 -0.261524,-0.59777 -0.164479,-0.164479 -0.366456,-0.266665 -0.59777,-0.261524 z m 2.988849,2.839407 -1.980113,1.980112 1.008737,1.008737 0.971376,-0.971376 6.388665,6.388665 1.008737,-1.008736 -7.397402,-7.397402 z m -2.914128,4.25911 c -0.258934,0.02698 -0.544367,0.06206 -0.821933,0.149442 -0.91493,0.287866 -1.776024,0.842025 -2.577883,1.643867 -0.771011,0.771028 -1.274775,1.625591 -1.531785,2.540522 -0.318689,1.110263 -0.111556,2.017998 0.59777,2.727325 0.359815,0.359818 0.695189,0.585109 1.008736,0.672491 0.277565,0.08224 0.65583,0.09391 1.19554,0.03736 0.585976,-0.0514 1.392522,-0.443697 2.353719,-1.158179 1.305591,-0.966326 2.036047,-1.493397 2.241637,-1.606507 0.80699,-0.426626 1.442779,-0.425239 1.905391,0.03736 0.395781,0.395793 0.447564,0.961619 0.149443,1.681228 -0.226186,0.55512 -0.546131,1.069179 -1.008737,1.531785 -0.544854,0.544854 -1.166219,0.928258 -1.79331,1.19554 -0.827556,0.34439 -1.454437,0.314553 -1.942752,-0.112082 l -0.784573,1.19554 c 0.812139,0.616814 1.771644,0.755356 2.876768,0.410966 0.914939,-0.28784 1.781164,-0.847148 2.577882,-1.643867 0.745311,-0.74531 1.259358,-1.579315 1.531786,-2.540522 0.328962,-1.151375 0.160582,-2.081042 -0.523049,-2.764685 -0.575698,-0.575685 -1.153187,-0.835969 -1.718588,-0.784573 -0.940644,0.08739 -1.805488,0.384034 -2.540522,0.934015 -0.729887,0.575708 -1.447325,1.180241 -2.166916,1.755949 -1.038294,0.647664 -1.8308,0.672363 -2.391079,0.112082 -0.406061,-0.406058 -0.491444,-0.928003 -0.224164,-1.606506 0.20046,-0.50887 0.546132,-0.994443 1.008737,-1.457064 1.500914,-1.500898 2.800942,-1.899723 3.885504,-1.19554 l 0.747212,-1.19554 c -0.609102,-0.4626 -1.278034,-0.641359 -2.054834,-0.560409 z"
     style="font-size:18.67859458999999944px;font-style:normal;font-variant:normal;font-weight:normal;font-stretch:normal;text-align:start;line-height:125%;letter-spacing:-0.35415024000000001;writing-mode:lr-tb;text-anchor:start;fill:#ececec;fill-opacity:1;stroke:#ececec;stroke-width:0.47821590000000003;stroke-miterlimit:4;stroke-opacity:1;font-family:Dustismo;-inkscape-font-specification:Dustismo" /><path
     id="path17726"
     d="m 84.838793,54.963928 -0.03736,0.03736 0.709852,4.632717 0.03736,0 -0.709851,-4.670077 z m -5.193126,5.193125 -0.261524,0.261525 6.426026,1.008736 0.934015,6.351305 1.307622,-1.270261 -0.03736,-0.261524 -1.270261,1.2329 -0.934015,-6.351305 -6.164502,-0.971376 z m 13.524543,0.934016 -1.008737,1.008736 -4.89424,-0.747212 0.03736,0.298885 4.85688,0.747212 1.270261,-1.270261 -0.261524,-0.03736 z m -15.878262,1.382342 -0.149442,0.149443 3.698701,3.698701 c 0.786438,0.78645 1.282293,1.602266 1.457064,2.465801 0.03409,0.174013 0.03154,0.354982 0.03736,0.523048 0.01805,-0.262867 0.01722,-0.543308 -0.03736,-0.821933 C 82.1235,67.624936 81.627645,66.80912 80.841207,66.02267 l -3.549259,-3.549259 z m -10.759857,4.670078 -0.149443,0.149442 4.034947,4.034947 c 0.125173,0.02029 0.245215,0.04535 0.373606,0.07472 l -4.25911,-4.25911 z m 5.342568,0.784572 -0.149443,0.149443 3.848144,3.885504 c 1.064004,1.064006 2.175094,1.654531 3.362455,1.79331 1.305586,0.154205 2.473595,-0.306678 3.511898,-1.344983 0.75331,-0.753309 1.1336,-1.648754 1.120819,-2.689964 -0.05581,0.919487 -0.43816,1.708421 -1.120819,2.391079 -1.038303,1.038305 -2.206312,1.499188 -3.511898,1.344983 -1.187361,-0.138779 -2.298451,-0.729304 -3.362455,-1.79331 l -3.698701,-3.736062 z m 11.619151,0.709852 c 0.02147,0.115107 0.02458,0.224159 0.03736,0.336246 l 1.008737,1.046097 1.008736,-1.008737 -0.149442,-0.149442 -0.859294,0.859294 -1.046098,-1.083458 z m -13.113576,3.885504 c -1.094846,-0.0771 -2.019367,0.263435 -2.764685,1.008737 -0.755591,0.755607 -1.115682,1.709966 -1.120819,2.876767 -4.64e-4,0.05236 -0.0011,0.09788 0,0.149443 0.03554,-1.095935 0.399291,-2.005782 1.120819,-2.727325 0.745318,-0.745302 1.669839,-1.085837 2.764685,-1.008737 1.043435,0.07711 1.966592,0.509542 2.727325,1.270261 0.742137,0.742151 1.15608,1.626845 1.232901,2.652604 -4.17e-4,-0.07625 0.0048,-0.146137 0,-0.224164 -0.06169,-1.058855 -0.472163,-1.966574 -1.232901,-2.727325 -0.760733,-0.760719 -1.68389,-1.193152 -2.727325,-1.270261 z m -10.722497,3.287734 c -0.03572,0.151595 -0.100796,0.287613 -0.224163,0.410967 -0.159337,0.159354 -0.361341,0.251232 -0.59777,0.261525 -0.241582,0.0051 -0.438419,-0.06481 -0.59777,-0.224164 -0.11464,-0.11464 -0.159801,-0.255212 -0.186803,-0.410967 -0.0061,0.03864 -0.03649,0.07087 -0.03736,0.112082 -0.01028,0.23646 0.06482,0.438435 0.224164,0.59777 0.159351,0.159356 0.356188,0.229304 0.59777,0.224163 0.236429,-0.01028 0.438433,-0.10217 0.59777,-0.261524 0.164493,-0.164473 0.256383,-0.3291 0.261524,-0.560409 0.0011,-0.05171 -0.02829,-0.10076 -0.03736,-0.149443 z m 15.803541,0.261525 c 0.02737,0.130403 0.05627,0.24617 0.07472,0.373606 l 1.270261,1.270261 1.046097,-1.008737 -0.149442,-0.149442 -0.896655,0.859294 -1.344982,-1.344982 z m -10.31153,1.457064 c 0.148525,1.192343 0.61782,2.224327 1.457064,3.06357 1.022886,1.022886 2.300972,1.526645 3.848143,1.531786 1.547169,-0.0051 2.825259,-0.508902 3.848144,-1.531786 0.781815,-0.781816 1.16274,-1.719252 1.2329,-2.764685 -0.124471,0.923616 -0.52614,1.759039 -1.2329,2.4658 -1.022885,1.022884 -2.300975,1.526647 -3.848144,1.531786 -1.547171,-0.0051 -2.825257,-0.5089 -3.848143,-1.531786 -0.771013,-0.771013 -1.268636,-1.694534 -1.457064,-2.764685 z m -3.325095,2.129555 -0.971376,0.971376 -0.859294,-0.859294 -0.149443,0.149442 1.008737,1.008737 0.971376,-0.971376 6.388665,6.388665 1.008737,-1.008736 -0.149442,-0.149443 -0.859295,0.859294 -6.388665,-6.388665 z m -1.008737,3.02621 -0.597769,0.971376 c -1.084562,-0.704183 -2.38459,-0.305358 -3.885504,1.19554 -0.462605,0.462621 -0.808277,0.948194 -1.008737,1.457064 -0.115417,0.292989 -0.162971,0.546694 -0.149443,0.784572 0.02324,-0.150691 0.08262,-0.316062 0.149443,-0.485688 0.20046,-0.508869 0.546132,-0.994442 1.008737,-1.457064 1.500914,-1.500897 2.800942,-1.899722 3.885504,-1.195539 l 0.747212,-1.19554 c -0.04444,-0.03375 -0.104347,-0.04398 -0.149443,-0.07472 z m 1.643868,3.922864 c -0.317648,-0.0049 -0.679962,0.08558 -1.083458,0.298885 -0.20559,0.11311 -0.936046,0.640181 -2.241637,1.606507 -0.961197,0.714482 -1.767743,1.106785 -2.353719,1.158179 -0.53971,0.05655 -0.917975,0.04488 -1.19554,-0.03736 -0.313547,-0.08738 -0.648921,-0.312673 -1.008736,-0.672491 -0.487226,-0.487223 -0.704163,-1.08017 -0.709852,-1.755949 -0.07504,0.805557 0.151859,1.496841 0.709852,2.054834 0.359815,0.359818 0.695189,0.585109 1.008736,0.672491 0.277565,0.08224 0.65583,0.09391 1.19554,0.03736 0.585976,-0.0514 1.392522,-0.443697 2.353719,-1.158179 1.305591,-0.966326 2.036047,-1.493397 2.241637,-1.606507 0.80699,-0.426626 1.442779,-0.425239 1.905391,0.03736 0.177012,0.177018 0.260022,0.391543 0.298885,0.63513 0.02323,-0.376933 -0.05118,-0.686303 -0.298885,-0.934015 -0.231306,-0.2313 -0.504286,-0.331402 -0.821933,-0.336246 z m 2.577882,1.307622 c -0.02309,0.239175 -0.07443,0.484699 -0.149442,0.747212 -0.272428,0.961207 -0.786475,1.795212 -1.531786,2.540522 -0.796718,0.796719 -1.662943,1.356027 -2.577882,1.643867 -1.042623,0.324913 -1.945397,0.194633 -2.727325,-0.336245 l -0.149443,0.224164 c 0.812139,0.616814 1.771644,0.755356 2.876768,0.410966 0.914939,-0.28784 1.781164,-0.847148 2.577882,-1.643867 0.745311,-0.74531 1.259358,-1.579315 1.531786,-2.540522 0.106857,-0.373981 0.148147,-0.71973 0.149442,-1.046097 z"
     style="font-size:18.67859459px;font-style:normal;font-variant:normal;font-weight:normal;font-stretch:normal;text-align:start;line-height:125%;letter-spacing:-0.35415024;writing-mode:lr-tb;text-anchor:start;fill:#000000;fill-opacity:1;stroke:#000000;stroke-width:0.11955398;stroke-miterlimit:4;stroke-opacity:1;stroke-dasharray:none;font-family:Dustismo;-inkscape-font-specification:Dustismo" /><path
     style="opacity:1;fill:#000000;stroke:none"
     d="m 62.443766,33.853349 -5.314597,1.777671 1.251432,1.268159 -16.680518,16.460474 c 0.02267,-3.249348 0.05264,-7.763984 0.05226,-7.872633 0.07733,-0.0763 1.412873,-1.394234 2.351843,-2.320817 0.962896,0.59352 2.244339,0.482409 3.086097,-0.348246 0.989784,-0.976728 0.995989,-2.572354 0.02144,-3.559928 -0.974552,-0.987574 -2.567955,-0.998154 -3.556634,-0.02252 -0.828503,0.817573 -0.967406,2.068821 -0.416317,3.033831 l -2.660046,2.624954 c -0.07622,0.0752 -0.121937,0.183559 -0.12051,0.299896 l -0.06498,9.455046 -2.743999,2.707802 c -1.482469,-1.016191 -3.523548,-0.872809 -4.849151,0.435307 -1.505664,1.485803 -1.525069,3.912097 -0.03818,5.418866 1.486893,1.506772 3.913202,1.523979 5.421077,0.03598 1.325603,-1.308118 1.49609,-3.349306 0.499661,-4.842943 l 6.51645,-6.430485 8.746163,0.05587 c 0.116305,0.003 0.228533,-0.04017 0.30365,-0.114317 l 3.509537,-3.46324 1.34845,1.366479 3.581341,-3.534097 -3.533007,-3.580236 -3.581339,3.534096 1.307026,1.3245 c -0.406518,0.401155 -3.100808,3.059904 -3.211276,3.168912 -0.102061,-0.0017 -4.00654,-0.0277 -7.167005,-0.04868 l 12.909174,-12.73888 1.249252,1.265952 1.782679,-5.356801 z"
     id="path2009" /></g></svg>