/* XPM */
static char *qt_fll_iso_usb_gui[] = {
/* columns rows colors chars-per-pixel */
"32 32 103 2",
"   c #160202",
".  c #1F1F1F",
"X  c #260000",
"o  c #351313",
"O  c #301A1A",
"+  c #3E1F1E",
"@  c #242424",
"#  c #2E2322",
"$  c #2C2C2C",
"%  c #342323",
"&  c #3A2221",
"*  c #30322F",
"=  c #333333",
"-  c #373936",
";  c #3B3C3B",
":  c #5F0202",
">  c #431111",
",  c #471C1C",
"<  c #4B1818",
"1  c #551615",
"2  c #581414",
"3  c #620606",
"4  c #690405",
"5  c #63090A",
"6  c #7B090B",
"7  c #651414",
"8  c #444444",
"9  c #474845",
"0  c #4A4A4A",
"q  c #4F504E",
"w  c #50504F",
"e  c #535353",
"r  c #585857",
"t  c #5C5C5C",
"y  c #626362",
"u  c #686868",
"i  c #727272",
"p  c #7C7C7C",
"a  c #810405",
"s  c #8D0404",
"d  c #8B0C0D",
"f  c #9D090A",
"g  c #8C0D10",
"h  c #9B0F12",
"j  c #8F1818",
"k  c #9F1010",
"l  c #AD0101",
"z  c #A70809",
"x  c #A80B0F",
"c  c #BD0607",
"v  c #B30708",
"b  c #B30809",
"n  c #BB090B",
"m  c #A30F12",
"M  c #BB0F13",
"N  c #A41212",
"B  c #B21014",
"V  c #CE0303",
"C  c #C20708",
"Z  c #C3080A",
"A  c #CD0C0F",
"S  c #D50101",
"D  c #D30709",
"F  c #DC0608",
"G  c #D40A0C",
"H  c #DC080A",
"J  c #C50D11",
"K  c #C90D10",
"L  c #E70607",
"P  c #EB0405",
"I  c #E20709",
"U  c #F50101",
"Y  c #FD0202",
"T  c #FF0909",
"R  c #F11616",
"E  c #FD1212",
"W  c #F31E1E",
"Q  c #FF1F1F",
"!  c #FA2626",
"~  c #857A6E",
"^  c #84837A",
"/  c #838383",
"(  c #8C8C8C",
")  c #939393",
"_  c #999991",
"`  c #9C9C9C",
"'  c #A4A49B",
"]  c #A3A3A3",
"[  c #ACADAD",
"{  c #B2B3B3",
"}  c #B7B8B7",
"|  c #B9B9B7",
" . c #BEC0C2",
".. c #C0C0C0",
"X. c #C7C9CC",
"o. c #C9C9CA",
"O. c #CACCD3",
"+. c #D3D5D9",
"@. c #DCDCDD",
"#. c #DCDDE0",
"$. c #E4E4E5",
"%. c #EAEBEB",
"&. c None",
/* pixels */
"&.&.&.&.&.&.&.&.&.&.&.&.&.&.&.&.&.&.&.&.&.&.&.&.&.&.&.&.&.&.&.&.",
"&.&.&.&.&.&.; - = $ @ &.&.&.&.&.&.&.&.&.&.&.&.&.&.&.&.&.&.&.&.&.",
"&.&.&.&.8 ; 9 8 8 8 - . &.&.&.&.&.&.&.&.&.&.&.&.&.&.&.&.&.&.&.&.",
"&.&.&.e ; 8 * = * * 8 8 $ @ &.&.&.&.&.&.&.&.&.&.&.&.&.&.&.&.&.&.",
"&.&.q ; 8 - - - ; - - 8 9 ; $ &.&.&.&.&.&.&.&.&.&.&.&.&.&.&.&.&.",
"&.9 ; 9 ; 8 ; ; ; ; ; ; ; 9 0 $ &.&.&.&.&.&.&.&.&.&.&.&.&.&.&.&.",
"&.; q 8 ; 8 8 8 8 - % 2 1 # ; w = &.&.&.&.&.&.&.&.&.&.&.&.&.&.&.",
"&.; w 9 9 9 9 8 + H h M B k D % e = &.&.&.&.&.&.&.&.&.&.&.&.&.&.",
"&.- e 9 0 0 9 < g K G H H G x 5 & e - &.&.&.&.&.&.&.&.&.&.&.&.&.",
"&.= e 0 9 0 = 6 K I P S Y P 4 f G ; e - &.&.&.&.&.&.&.&.&.&.&.&.",
"&.$ 0 w 0 9 7 M H U Z 5 E s V G B , 0 t - &.&.&.&.&.&.&.&.&.&.&.",
"&.&.@ w 9 9 b J L Y m ! j R X a J g 9 9 u $ &.&.&.&.&.&.&.&.&.&.",
"&.&.&.$ r 8 c J L T N 5 N k l F J z 8 8 9 y $ &.&.&.&.&.&.&.&.&.",
"&.&.&.@ e 8 g J I U 3 W Q E Y H M 7 ; 8 8 / t = &.&.&.&.&.&.&.&.",
"&.&.&.&.$ t O k : 3 U T T Y L A g @ ; ; 9 ( ` t ; &.&.&.&.&.&.&.",
"&.&.&.&.&.= 0 z   3 I P P I G B d = = ; ( ` ` e e 0 &.&.&.&.&.&.",
"&.&.&.&.&.$ ; ; v m K K K K h f @ = - / i ( 8 = e w &.&.&.&.&.&.",
"&.&.&.&.&.&.$ ; 9 > c c Z v o $ = = y ) [ = = $ 8 8 y &.&.&.&.&.",
"&.&.&.&.&.&.&.= 8 w = $ $ = = = 8 y ( ( 8 = $ = 8 w t &.&.&.&.&.",
"&.&.&.&.&.&.&.&.; ; e $ = = = - ( ` ( y = = = 8 w e &.&.&.&.&.&.",
"&.&.&.&.&.&.&.&.&.; ; r = - ; ) p ( y = = = ; e y  .t &.&.&.&.&.",
"&.&.&.&.&.&.&.&.&.&.= ; t 8 ) [ [ t 8 ; ; 8 e y X.O.X.t &.&.&.&.",
"&.&.&.&.&.&.&.&.&.&.&.. = y ` ] / r 8 8 w e u +.#.+.O.X.t &.&.&.",
"&.&.&.&.&.&.&.&.&.&.&.&.$ - y e 0 0 0 w e u #.%.$.#._ ) X.t &.&.",
"&.&.&.&.&.&.&.&.&.&.&.&.&.; ; r t 0 w e u @.%.%.%.#.9 ~ O.X.t &.",
"&.&.&.&.&.&.&.&.&.&.&.&.&.&.&.0 8 w w t ..%.%.%.%.%.+.#.+.O.[ &.",
"&.&.&.&.&.&.&.&.&.&.&.&.&.&.&.&.&.t t &.&.o.$.' t %.%.#.#.[ &.&.",
"&.&.&.&.&.&.&.&.&.&.&.&.&.&.&.&.&.&.&.&.&.&.o.^ ~ %.%.%.{ &.&.&.",
"&.&.&.&.&.&.&.&.&.&.&.&.&.&.&.&.&.&.&.&.&.&.&.o.$.%.%.| &.&.&.&.",
"&.&.&.&.&.&.&.&.&.&.&.&.&.&.&.&.&.&.&.&.&.&.&.&.X.$.| &.&.&.&.&.",
"&.&.&.&.&.&.&.&.&.&.&.&.&.&.&.&.&.&.&.&.&.&.&.&.&.[ &.&.&.&.&.&.",
"&.&.&.&.&.&.&.&.&.&.&.&.&.&.&.&.&.&.&.&.&.&.&.&.&.&.&.&.&.&.&.&."
};
