/* XPM */
static char *qt_fll_iso_usb_gui[] = {
/* columns rows colors chars-per-pixel */
"32 32 240 2",
"   c #160202",
".  c #1F1F1F",
"X  c #260000",
"o  c #301A1A",
"O  c #3E1F1E",
"+  c #232323",
"@  c #252525",
"#  c #272727",
"$  c #2E2322",
"%  c #282828",
"&  c #292828",
"*  c #292929",
"=  c #2A2A2A",
"-  c #2B2B2B",
";  c #2C2C2C",
":  c #2D2D2D",
">  c #2E2E2E",
",  c #2F2F2F",
"<  c #332121",
"1  c #342121",
"2  c #342424",
"3  c #3A2221",
"4  c #30322F",
"5  c #303030",
"6  c #313131",
"7  c #323231",
"8  c #323232",
"9  c #333333",
"0  c #343434",
"q  c #353535",
"w  c #363636",
"e  c #373737",
"r  c #373936",
"t  c #383838",
"y  c #393939",
"u  c #3A3A39",
"i  c #3A3A3A",
"p  c #3B3B3A",
"a  c #3B3B3B",
"s  c #3C3C3C",
"d  c #3D3D3D",
"f  c #3D3F3C",
"g  c #3D3F3D",
"h  c #3E3E3E",
"j  c #3F3F3F",
"k  c #5F0202",
"l  c #431111",
"z  c #471C1C",
"x  c #4B1818",
"c  c #551615",
"v  c #581414",
"b  c #600506",
"n  c #610707",
"m  c #640506",
"M  c #690405",
"N  c #610909",
"B  c #630808",
"V  c #65090C",
"C  c #7B090B",
"Z  c #651313",
"A  c #651414",
"S  c #621C1C",
"D  c #6E1A1B",
"F  c #40403F",
"G  c #404040",
"H  c #424340",
"J  c #424341",
"K  c #424342",
"L  c #434343",
"P  c #424442",
"I  c #434442",
"U  c #444444",
"Y  c #454544",
"T  c #454545",
"R  c #454645",
"E  c #454745",
"W  c #464646",
"Q  c #464746",
"!  c #474747",
"~  c #464944",
"^  c #474845",
"/  c #474846",
"(  c #484848",
")  c #484948",
"_  c #494948",
"`  c #494949",
"'  c #494A49",
"]  c #4A4A4A",
"[  c #4D4D4C",
"{  c #4D4D4D",
"}  c #4E4E4E",
"|  c #4F4F4F",
" . c #4F504E",
".. c #50504F",
"X. c #505050",
"o. c #505150",
"O. c #515150",
"+. c #515151",
"@. c #525251",
"#. c #525252",
"$. c #535353",
"%. c #545453",
"&. c #545454",
"*. c #545554",
"=. c #555555",
"-. c #565655",
";. c #565656",
":. c #575757",
">. c #595958",
",. c #5A5A5A",
"<. c #5B5B5A",
"1. c #5B5B5B",
"2. c #5D5D5D",
"3. c #5E5E5E",
"4. c #616160",
"5. c #606260",
"6. c #626262",
"7. c #646464",
"8. c #656665",
"9. c #676767",
"0. c #686868",
"q. c #810405",
"w. c #8D0404",
"e. c #8C0C0D",
"r. c #8D0D0E",
"t. c #9F090A",
"y. c #9A0A0C",
"u. c #890D10",
"i. c #8F0D11",
"p. c #990F12",
"a. c #9A0F12",
"s. c #9E0F13",
"d. c #8F1818",
"f. c #9F1010",
"g. c #AD0101",
"h. c #A70809",
"j. c #A80B0F",
"k. c #BD0607",
"l. c #B10708",
"z. c #B40708",
"x. c #B30809",
"c. c #BB090B",
"v. c #A30F12",
"b. c #B90F13",
"n. c #BB0F13",
"m. c #BD0F13",
"M. c #A11212",
"N. c #A51010",
"B. c #A61313",
"V. c #B01013",
"C. c #B41014",
"Z. c #CE0303",
"A. c #C20708",
"S. c #C10808",
"D. c #C6080B",
"F. c #CF0B0E",
"G. c #CC0C0F",
"H. c #CD0C0F",
"J. c #D50101",
"K. c #D30709",
"L. c #DC0608",
"P. c #D4090B",
"I. c #D10B0D",
"U. c #D6090C",
"Y. c #D40A0C",
"T. c #D60A0C",
"R. c #DB080A",
"E. c #DA090B",
"W. c #DD080A",
"Q. c #C20E12",
"!. c #C30E12",
"~. c #C50D11",
"^. c #C70D10",
"/. c #C60D11",
"(. c #C40E11",
"). c #C90C10",
"_. c #C80D10",
"`. c #E70607",
"'. c #EC0304",
"]. c #ED0304",
"[. c #E80507",
"{. c #EB0506",
"}. c #E00709",
"|. c #E10709",
" X c #E30708",
".X c #E50608",
"XX c #F50000",
"oX c #F40101",
"OX c #F50203",
"+X c #FB0101",
"@X c #F90102",
"#X c #FD0101",
"$X c #FF0303",
"%X c #FF0505",
"&X c #FF0808",
"*X c #FF0909",
"=X c #F11616",
"-X c #FF1010",
";X c #FA1414",
":X c #F31E1E",
">X c #FF1F1F",
",X c #FA2626",
"<X c #84796D",
"1X c #867B6F",
"2X c #84837A",
"3X c #919292",
"4X c #999991",
"5X c #A4A49B",
"6X c #A8AAAA",
"7X c #ACACAB",
"8X c #ABADAE",
"9X c #B3B5B4",
"0X c #B7B8B7",
"qX c #B9B9B7",
"wX c #BEC0C2",
"eX c #C0C0C0",
"rX c #C7C9CB",
"tX c #C7C9CC",
"yX c #C8C8C8",
"uX c #C9C9C9",
"iX c #C8C9CC",
"pX c #C8CACE",
"aX c #CACCD3",
"sX c #D2D4D9",
"dX c #D4D6D8",
"fX c #D5D6D8",
"gX c #DBDBDB",
"hX c #DCDCDD",
"jX c #DCDDDF",
"kX c #DCDDE0",
"lX c #E2E3E5",
"zX c #E4E4E4",
"xX c #E5E5E6",
"cX c #E8E9EA",
"vX c #EAEAEA",
"bX c #EAEAEB",
"nX c #EBEBEC",
"mX c #ECECED",
"MX c #EDEDEE",
"NX c None",
/* pixels */
"NXNXNXNXNXNXNXNXNXNXNXNXNXNXNXNXNXNXNXNXNXNXNXNXNXNXNXNXNXNXNXNX",
"NXNXNXNXNXNXd e e : @ NXNXNXNXNXNXNXNXNXNXNXNXNXNXNXNXNXNXNXNXNX",
"NXNXNXNX( y Q I J Q y . NXNXNXNXNXNXNXNXNXNXNXNXNXNXNXNXNXNXNXNX",
"NXNXNX$.y Q 4 4 4 4 J I & + NXNXNXNXNXNXNXNXNXNXNXNXNXNXNXNXNXNX",
"NXNX{ s / r r r r r r g ( d & NXNXNXNXNXNXNXNXNXNXNXNXNXNXNXNXNX",
"NX) s ( g g f f g s g f g / ( : NXNXNXNXNXNXNXNXNXNXNXNXNXNXNXNX",
"NXd { J J J I J L e < v c $ a $.6 NXNXNXNXNXNXNXNXNXNXNXNXNXNXNX",
"NXy o.E E Q Q I O E.f.n.C.f.K.2 -.6 NXNXNXNXNXNXNXNXNXNXNXNXNXNX",
"NXy $.Q ( ( ( x i.).T.W.W.T.j.B 3 -.e NXNXNXNXNXNXNXNXNXNXNXNXNX",
"NX6 -.( ( ( 6 C ).|.{.J.#X{.M y.P.y -.e NXNXNXNXNXNXNXNXNXNXNXNX",
"NX& ( { ( ( A n.E.OXS.B ;Xw.Z.T.V.z ( 2.e NXNXNXNXNXNXNXNXNXNXNX",
"NXNX+ $.! Q l.^..X$XN.,Xd.=XX q.Q.r.Q ( 6.: NXNXNXNXNXNXNXNXNXNX",
"NXNXNX: -.J A.^.[.%XB.n M.f.g.L.^.t.Q a e -.: NXNXNXNXNXNXNXNXNX",
"NXNXNX@ X.! e.Q.|.OXn :X>X-X@XW.n.A y 6 6 y -.9 NXNXNXNXNXNXNXNX",
"NXNXNXNX; 2.o p.k k OX&X&X#X[.I.u.& 6 9 9 6 6 $.y NXNXNXNXNXNXNX",
"NXNXNXNXNX6 X.h.  B  X[.[.|.I.C.S 6 9 6 6 6 6 0 $.{ NXNXNXNXNXNX",
"NXNXNXNXNX: e a l.v./.).).^.f.D 9 6 9 6 9 6 9 6 -.{ NXNXNXNXNXNX",
"NXNXNXNXNXNX, J ( l k.c.D.x.< 6 6 9 6 9 6 9 6 9 U Q 2.NXNXNXNXNX",
"NXNXNXNXNXNXNX6 j =.6 ; ; 9 6 9 9 6 9 6 9 6 9 6 j | 1.NXNXNXNXNX",
"NXNXNXNXNXNXNXNXe d &.6 9 6 9 6 6 9 6 9 6 9 6 d X.=.NXNXNXNXNXNX",
"NXNXNXNXNXNXNXNXNXa d =.6 6 6 9 9 6 6 6 9 6 F $.6.wX1.NXNXNXNXNX",
"NXNXNXNXNXNXNXNXNXNX6 e  .e 9 6 6 9 y a d ( $.8.iXaXtX1.NXNXNXNX",
"NXNXNXNXNXNXNXNXNXNXNX. e 2.e 6 9 d Q U $.$.8.fXkXsXaXiX1.NXNXNX",
"NXNXNXNXNXNXNXNXNXNXNXNX& y $.6 J ( ( $.$.9.hXcXlXkX4X3XiX1.NXNX",
"NXNXNXNXNXNXNXNXNXNXNXNXNXy y -.>.{ { $.0.gXMXcXcXkX~ 1XaXrX<.NX",
"NXNXNXNXNXNXNXNXNXNXNXNXNXNXNX( Q { $.<.eXxXvXMXnXcXsXkXsXaX6XNX",
"NXNXNXNXNXNXNXNXNXNXNXNXNXNXNXNXNX<.2.NXNXuXxX5X5.xXcXlXkX8XNXNX",
"NXNXNXNXNXNXNXNXNXNXNXNXNXNXNXNXNXNXNXNXNXNXuX2X1XmXnXcX9XNXNXNX",
"NXNXNXNXNXNXNXNXNXNXNXNXNXNXNXNXNXNXNXNXNXNXNXuXzXcXMXqXNXNXNXNX",
"NXNXNXNXNXNXNXNXNXNXNXNXNXNXNXNXNXNXNXNXNXNXNXNXuXxX0XNXNXNXNXNX",
"NXNXNXNXNXNXNXNXNXNXNXNXNXNXNXNXNXNXNXNXNXNXNXNXNX7XNXNXNXNXNXNX",
"NXNXNXNXNXNXNXNXNXNXNXNXNXNXNXNXNXNXNXNXNXNXNXNXNXNXNXNXNXNXNXNX"
};
