/* XPM */
static char *qt_fll_iso_usb_gui[] = {
/* columns rows colors chars-per-pixel */
"32 32 101 2",
"   c #160202",
".  c #1F1F1F",
"X  c #260000",
"o  c #351313",
"O  c #301A1A",
"+  c #3E1F1E",
"@  c #242424",
"#  c #2E2322",
"$  c #2C2C2C",
"%  c #342323",
"&  c #3A2221",
"*  c #30322F",
"=  c #333333",
"-  c #373936",
";  c #3C3C3B",
":  c #5F0202",
">  c #431111",
",  c #471C1C",
"<  c #4B1818",
"1  c #551615",
"2  c #581414",
"3  c #620606",
"4  c #690405",
"5  c #63090A",
"6  c #7B090B",
"7  c #651414",
"8  c #444443",
"9  c #474845",
"0  c #4A4B4A",
"q  c #4F504E",
"w  c #50504F",
"e  c #535353",
"r  c #585857",
"t  c #5B5C5B",
"y  c #636463",
"u  c #6B6B6B",
"i  c #747474",
"p  c #7C7C7C",
"a  c #810405",
"s  c #8D0404",
"d  c #8B0C0D",
"f  c #9D090A",
"g  c #8C0D10",
"h  c #9B0F12",
"j  c #8F1818",
"k  c #9F1010",
"l  c #AD0101",
"z  c #A70809",
"x  c #A80B0F",
"c  c #BD0607",
"v  c #B30708",
"b  c #B30809",
"n  c #BB090B",
"m  c #A30F12",
"M  c #BB0F13",
"N  c #A41212",
"B  c #B21014",
"V  c #CE0303",
"C  c #C20708",
"Z  c #C3080A",
"A  c #CD0C0F",
"S  c #D50101",
"D  c #D30709",
"F  c #DC0608",
"G  c #D40A0C",
"H  c #DC080A",
"J  c #C50D11",
"K  c #C90D10",
"L  c #E70607",
"P  c #EB0405",
"I  c #E20709",
"U  c #F50101",
"Y  c #FD0202",
"T  c #FF0909",
"R  c #F11616",
"E  c #FD1212",
"W  c #F31E1E",
"Q  c #FF1F1F",
"!  c #FA2626",
"~  c #857A6E",
"^  c #84837A",
"/  c #848484",
"(  c #898989",
")  c #919191",
"_  c #999991",
"`  c #A4A49B",
"'  c #AAACAC",
"]  c #B3B5B4",
"[  c #B7B8B7",
"{  c #B9B9B7",
"}  c #BEC0C2",
"|  c #C0C0C0",
" . c #C7C9CC",
".. c #C9C9CA",
"X. c #CACCD3",
"o. c #D3D5D9",
"O. c #DCDCDD",
"+. c #DCDDE0",
"@. c #E4E4E5",
"#. c #EAEBEB",
"$. c None",
/* pixels */
"$.$.$.$.$.$.$.$.$.$.$.$.$.$.$.$.$.$.$.$.$.$.$.$.$.$.$.$.$.$.$.$.",
"$.$.$.$.$.$.; - = $ @ $.$.$.$.$.$.$.$.$.$.$.$.$.$.$.$.$.$.$.$.$.",
"$.$.$.$.8 ; 9 8 8 8 - @ $.$.$.$.$.$.$.$.$.$.$.$.$.$.$.$.$.$.$.$.",
"$.$.$.e ; 8 * = * * 8 9 $ @ $.$.$.$.$.$.$.$.$.$.$.$.$.$.$.$.$.$.",
"$.$.0 ; 8 ; - - - - - ; 0 ; $ $.$.$.$.$.$.$.$.$.$.$.$.$.$.$.$.$.",
"$.9 ; 9 ; ; ; ; ; ; ; ; ; 8 0 $ $.$.$.$.$.$.$.$.$.$.$.$.$.$.$.$.",
"$.; q 8 ; 8 9 8 8 - % 2 1 # ; w = $.$.$.$.$.$.$.$.$.$.$.$.$.$.$.",
"$.; w 9 9 9 9 8 + H h M B k D % e = $.$.$.$.$.$.$.$.$.$.$.$.$.$.",
"$.- e 9 0 8 0 < g J G F H G x 5 & r = $.$.$.$.$.$.$.$.$.$.$.$.$.",
"$.= r 0 9 0 = 6 K I P S Y P 4 f D ; r - $.$.$.$.$.$.$.$.$.$.$.$.",
"$.$ 9 w 9 0 7 M H U Z 5 E s V G B , 0 t - $.$.$.$.$.$.$.$.$.$.$.",
"$.$.@ w 9 9 b J L Y m ! j R X a J g 9 0 y $ $.$.$.$.$.$.$.$.$.$.",
"$.$.$.$ r 8 c K L T N 5 N k l F J f 8 8 0 t $ $.$.$.$.$.$.$.$.$.",
"$.$.$.@ w 9 g J I U 3 W Q E Y H M 7 8 ; ; i t = $.$.$.$.$.$.$.$.",
"$.$.$.$.$ t O h : 3 U T T Y L A g @ ; ; i ) ; r ; $.$.$.$.$.$.$.",
"$.$.$.$.$.= w z   3 I P P I G B d = - u w / i 0 e 0 $.$.$.$.$.$.",
"$.$.$.$.$.$ = ; v m K A K K h f 0 0 w ; / u = = r 0 $.$.$.$.$.$.",
"$.$.$.$.$.$.= 8 0 > c n Z b o $ = / i u p 0 = = 8 8 y $.$.$.$.$.",
"$.$.$.$.$.$.$.= ; r $ $ $ = w = p e ( t 8 = = = ; w t $.$.$.$.$.",
"$.$.$.$.$.$.$.$.- ; e = = = ; / p 8 p 0 $ = = 8 e r $.$.$.$.$.$.",
"$.$.$.$.$.$.$.$.$.; ; r - ; ( 0 p y 8 = = = ; e y } t $.$.$.$.$.",
"$.$.$.$.$.$.$.$.$.$.= - t p u i y e ; ; ; 8 e y  .X. .t $.$.$.$.",
"$.$.$.$.$.$.$.$.$.$.$.. - u u ( e 8 8 8 e r y o.+.o.X. .t $.$.$.",
"$.$.$.$.$.$.$.$.$.$.$.$.$ - y 0 0 0 0 e e y +.#.@.+._ )  .t $.$.",
"$.$.$.$.$.$.$.$.$.$.$.$.$.; ; r t 0 w e u O.#.#.#.+.9 ~ X. .t $.",
"$.$.$.$.$.$.$.$.$.$.$.$.$.$.$.0 8 0 e t | #.#.#.#.#.o.+.o.X.' $.",
"$.$.$.$.$.$.$.$.$.$.$.$.$.$.$.$.$.t t $.$...@.` t #.#.+.+.' $.$.",
"$.$.$.$.$.$.$.$.$.$.$.$.$.$.$.$.$.$.$.$.$.$...^ ~ #.#.#.] $.$.$.",
"$.$.$.$.$.$.$.$.$.$.$.$.$.$.$.$.$.$.$.$.$.$.$...@.#.#.{ $.$.$.$.",
"$.$.$.$.$.$.$.$.$.$.$.$.$.$.$.$.$.$.$.$.$.$.$.$...@.{ $.$.$.$.$.",
"$.$.$.$.$.$.$.$.$.$.$.$.$.$.$.$.$.$.$.$.$.$.$.$.$.' $.$.$.$.$.$.",
"$.$.$.$.$.$.$.$.$.$.$.$.$.$.$.$.$.$.$.$.$.$.$.$.$.$.$.$.$.$.$.$."
};
