/* XPM */
static char *qt_fll_iso_usb_gui___[] = {
/* columns rows colors chars-per-pixel */
"16 16 102 2",
"   c #282828",
".  c #313131",
"X  c #323232",
"o  c #333333",
"O  c #343131",
"+  c #343434",
"@  c #353535",
"#  c #363636",
"$  c #373737",
"%  c #383636",
"&  c #3B3636",
"*  c #383837",
"=  c #383937",
"-  c #393939",
";  c #3A3A3A",
":  c #3B3B3B",
">  c #3B3C3A",
",  c #3C3D3B",
"<  c #3C3C3C",
"1  c #3C3D3C",
"2  c #3E3F3D",
"3  c #3E3E3E",
"4  c #3F3F3E",
"5  c #3F3F3F",
"6  c #5B0405",
"7  c #7F0F12",
"8  c #611415",
"9  c #6D1012",
"0  c #6B1214",
"q  c #651919",
"w  c #781012",
"e  c #751A1B",
"r  c #4E2021",
"t  c #412D2C",
"y  c #662021",
"u  c #404040",
"i  c #414141",
"p  c #424242",
"a  c #434343",
"s  c #444444",
"d  c #454545",
"f  c #474747",
"g  c #484848",
"h  c #484948",
"j  c #494948",
"k  c #494949",
"l  c #494A49",
"z  c #4A4A4A",
"x  c #4C4C4C",
"c  c #4D4D4D",
"v  c #4D4E4D",
"b  c #4F4F4F",
"n  c #505050",
"m  c #545454",
"M  c #595959",
"N  c #626262",
"B  c #646464",
"V  c #6B6B6B",
"C  c #777777",
"Z  c #767878",
"A  c #787878",
"S  c #7D7D7D",
"D  c #7F7F7F",
"F  c #830B0C",
"G  c #980304",
"H  c #831012",
"J  c #971515",
"K  c #BB0E10",
"L  c #B11313",
"P  c #B71617",
"I  c #BA1416",
"U  c #CE0B0E",
"Y  c #DC0304",
"T  c #C11313",
"R  c #D01B1B",
"E  c #E00506",
"W  c #E80507",
"Q  c #EF0405",
"!  c #F20303",
"~  c #F40202",
"^  c #F60203",
"/  c #888989",
"(  c #88898A",
")  c #8B8B8B",
"_  c #91908E",
"`  c #939393",
"'  c #949494",
"]  c #A3A5A7",
"[  c #A9A6A2",
"{  c #AFAFAF",
"}  c #B3B2AE",
"|  c #B0B0B1",
" . c #B0B1B1",
".. c #B6B7B7",
"X. c #B9BAB9",
"o. c #C8C9CF",
"O. c #DBDBDB",
"+. c #DCDDE0",
"@. c #E6E7E8",
"#. c #E8E9EA",
"$. c #EDEDEE",
"%. c None",
/* pixels */
"%.%.%.< + %.%.%.%.%.%.%.%.%.%.%.",
"%.%.< = $ $ %.%.%.%.%.%.%.%.%.%.",
"%.a 4 , > > 4 o %.%.%.%.%.%.%.%.",
"> j s d o I I % < %.%.%.%.%.%.%.",
"o v f O K E W F & i %.%.%.%.%.%.",
"%.i f 0 ! L T G 8 n i %.%.%.%.%.",
"%.  v 7 ~ J R Y 9 i M 4 %.%.%.%.",
"%.%.; y 6 ^ ^ U r i C Z h %.%.%.",
"%.%.%.< e H H q = B A < h %.%.%.",
"%.%.%.%.p - o < V S 5 + v %.%.%.",
"%.%.%.%.%.p h D ) h ; n ] ( %.%.",
"%.%.%.%.%.%.d A N h m ..+.{ ) %.",
"%.%.%.%.%.%.%.h v b { $.@._ o.Z ",
"%.%.%.%.%.%.%.%.%.%.' } [ #. .%.",
"%.%.%.%.%.%.%.%.%.%.%.` O.X.%.%.",
"%.%.%.%.%.%.%.%.%.%.%.%.%.%.%.%."
};
