/* XPM */
static char *qt_fll_iso_usb_gui___[] = {
/* columns rows colors chars-per-pixel */
"16 16 89 1",
"  c #282828",
". c #323232",
"X c #333333",
"o c #343131",
"O c #343434",
"+ c #353535",
"@ c #363636",
"# c #383636",
"$ c #3B3636",
"% c #383837",
"& c #383937",
"* c #393939",
"= c #3A3A3A",
"- c #3B3B3B",
"; c #3B3C3A",
": c #3C3D3B",
"> c #3C3C3C",
", c #3C3D3C",
"< c #3D3D3D",
"1 c #3E3F3D",
"2 c #3F3F3E",
"3 c #5B0405",
"4 c #7F0F12",
"5 c #611415",
"6 c #6D1012",
"7 c #6B1214",
"8 c #781012",
"9 c #751A1B",
"0 c #4D2525",
"q c #412929",
"w c #412D2C",
"e c #662021",
"r c #404040",
"t c #404140",
"y c #414141",
"u c #424242",
"i c #434343",
"p c #444444",
"a c #454545",
"s c #474747",
"d c #484948",
"f c #494948",
"g c #494A49",
"h c #4B4B4B",
"j c #4C4C4C",
"k c #4D4D4D",
"l c #4D4E4D",
"z c #4F4F4F",
"x c #505050",
"c c #545454",
"v c #767878",
"b c #830B0C",
"n c #980304",
"m c #831012",
"M c #971515",
"N c #BB0E10",
"B c #B11313",
"V c #B71617",
"C c #BA1416",
"Z c #CE0B0E",
"A c #DC0304",
"S c #C11313",
"D c #D01B1B",
"F c #E00506",
"G c #E80507",
"H c #EF0405",
"J c #F20303",
"K c #F40202",
"L c #F60203",
"P c #888989",
"I c #88898A",
"U c #91908E",
"Y c #939393",
"T c #949494",
"R c #A3A5A7",
"E c #A9A6A2",
"W c #AFAFAF",
"Q c #B3B2AE",
"! c #B0B0B1",
"~ c #B0B1B1",
"^ c #B6B7B7",
"/ c #B9BAB9",
"( c #C8C9CF",
") c #DBDBDB",
"_ c #DCDDE0",
"` c #E6E7E8",
"' c #E8E9EA",
"] c #EDEDEE",
"[ c None",
/* pixels */
"[[[>O[[[[[[[[[[[",
"[[>&&@[[[[[[[[[[",
"[i2:;;2X[[[[[[[[",
";fpaXCC#>[[[[[[[",
"XlsoNFGb#y[[[[[[",
"[ys7JBSn5xi[[[[[",
"[ l4KMDA6:>>[[[[",
"[[=e3LLZqXX>a[[[",
"[[[-9m40XXXXf[[[",
"[[[[y%XXXXOOl[[[",
"[[[[[i=X.==xRP[[",
"[[[[[[l>>gc^_!P[",
"[[[[[[[slzW]`U(v",
"[[[[[[[[[[TQE'![",
"[[[[[[[[[[[Y)/[[",
"[[[[[[[[[[[[[[[["
};
